<?xml version="1.0" standalone="no"?>
<!DOCTYPE svg PUBLIC "-//W3C//DTD SVG 20010904//EN"
 "http://www.w3.org/TR/2001/REC-SVG-20010904/DTD/svg10.dtd">
<svg version="1.0" xmlns="http://www.w3.org/2000/svg"
 width="737.000000pt" height="737.000000pt" viewBox="0 0 737.000000 737.000000"
 preserveAspectRatio="xMidYMid meet">
<metadata>
Created by potrace 1.14, written by Peter Selinger 2001-2017
</metadata>
<g transform="translate(0.000000,737.000000) scale(0.100000,-0.100000)"
fill="#000000" stroke="none">
<path d="M971 5018 c-288 -787 -962 -2660 -958 -2664 3 -3 578 -6 1279 -6
1398 1 1338 -2 1490 61 213 89 418 274 515 466 17 32 539 1456 582 1585 70
209 -6 443 -171 526 -111 56 -54 54 -1445 54 l-1283 0 -9 -22z m2039 -680
c-17 -46 -135 -371 -264 -723 l-233 -640 -727 -3 c-399 -1 -726 0 -726 3 0 2
99 278 220 611 121 334 220 613 220 620 0 7 -72 56 -160 109 -88 53 -160 98
-160 101 0 2 418 4 930 4 l930 0 -30 -82z"/>
<path d="M4435 5028 c-244 -668 -965 -2664 -965 -2672 0 -15 804 -16 819 -1 5
6 55 134 109 285 55 151 105 287 111 302 10 27 9 28 -157 128 l-167 100 516 0
516 0 253 -397 c139 -219 259 -405 267 -413 12 -13 72 -15 423 -15 226 0 410
0 410 2 0 1 -117 185 -261 410 l-260 408 158 6 c177 7 277 30 401 93 209 106
400 305 481 500 82 200 260 719 272 792 35 229 -81 413 -296 470 -71 19 -2623
21 -2630 2z m2032 -695 c-17 -49 -68 -187 -112 -308 l-81 -220 -728 -3 c-691
-2 -728 -1 -721 15 22 56 144 398 142 399 -1 1 -75 45 -164 98 -90 53 -163 99
-163 101 0 3 418 5 930 5 l929 0 -32 -87z"/>
</g>
</svg>
